<svg xmlns="http://www.w3.org/2000/svg" width="782.128" height="524.326" viewBox="0 0 782.128 524.326">
  <g id="explore_ill" transform="translate(0 0)">
    <path id="Path_1" data-name="Path 1" d="M574.476,434.808H219.652a10.728,10.728,0,0,1-10.716-10.716V198.553a10.728,10.728,0,0,1,10.716-10.716H574.476a10.728,10.728,0,0,1,10.716,10.716V424.092A10.728,10.728,0,0,1,574.476,434.808ZM219.652,190.218a8.345,8.345,0,0,0-8.335,8.335V424.092a8.345,8.345,0,0,0,8.335,8.335H574.476a8.345,8.345,0,0,0,8.335-8.335V198.553a8.345,8.345,0,0,0-8.335-8.335Z" transform="translate(-208.936 -187.837)" fill="#3f3d56"/>
    <circle id="Ellipse_1" data-name="Ellipse 1" cx="65.998" cy="65.998" r="65.998" transform="translate(151.014 77.947)" fill="#ccc"/>
    <path id="Path_2" data-name="Path 2" d="M934.286,710.726a246.3,246.3,0,0,1,20.385-77.735q4.6-10.278,10.128-20.1c.947-1.685-1.644-3.2-2.59-1.514a249.709,249.709,0,0,0-27.786,76.655q-2.086,11.268-3.136,22.7c-.178,1.922,2.823,1.909,3,0Z" transform="translate(-208.936 -187.837)" fill="#e6e6e6"/>
    <circle id="Ellipse_2" data-name="Ellipse 2" cx="19" cy="19" r="19" transform="translate(744.128 391.863)" fill="#e6e6e6"/>
    <path id="Path_3" data-name="Path 3" d="M936.229,711.231a159.789,159.789,0,0,1,13.225-50.43q2.985-6.667,6.57-13.041a.974.974,0,0,0-1.681-.982,162,162,0,0,0-18.026,49.73q-1.353,7.31-2.034,14.724c-.115,1.247,1.832,1.239,1.946,0Z" transform="translate(-208.936 -187.837)" fill="#e6e6e6"/>
    <circle id="Ellipse_3" data-name="Ellipse 3" cx="12.326" cy="12.326" r="12.326" transform="translate(739.476 438.391)" fill="#e6e6e6"/>
    <path id="Path_4" data-name="Path 4" d="M933.773,710.067a159.785,159.785,0,0,1-20.59-47.9q-1.748-7.093-2.841-14.324a.974.974,0,0,0-1.929.259,162,162,0,0,0,16.374,50.3q3.429,6.6,7.452,12.861c.676,1.054,2.206-.15,1.535-1.2Z" transform="translate(-208.936 -187.837)" fill="#e6e6e6"/>
    <circle id="Ellipse_4" data-name="Ellipse 4" cx="12.326" cy="12.326" r="12.326" transform="translate(687.135 437.526)" fill="#e6e6e6"/>
    <path id="Path_5" data-name="Path 5" d="M835.164,532.328a10.056,10.056,0,0,0-4.418-14.773l2.591-35.641-16.2,9.072.024,32.454a10.11,10.11,0,0,0,18.006,8.887Z" transform="translate(-208.936 -187.837)" fill="#ffb8b8"/>
    <path id="Path_6" data-name="Path 6" d="M831.134,393.782l4.43,113.418-18-1-4-119,3.8-1.786a9.665,9.665,0,0,1,13.774,8.368Z" transform="translate(-208.936 -187.837)" fill="#ffd084"/>
    <path id="Path_7" data-name="Path 7" d="M566.53,512.2H554.271l-5.833-47.288h18.094Z" fill="#ffb8b8"/>
    <path id="Path_8" data-name="Path 8" d="M545.513,508.7h23.644v14.886h-38.53A14.887,14.887,0,0,1,545.512,508.7Z" fill="#2f2e41"/>
    <path id="Path_9" data-name="Path 9" d="M668.533,497.55l-11.125,5.15-25.161-40.461,16.421-7.6Z" fill="#ffb8b8"/>
    <path id="Path_10" data-name="Path 10" d="M859.647,688.509h23.644V703.4h-38.53A14.887,14.887,0,0,1,859.647,688.509Z" transform="translate(-421.365 239.536) rotate(-24.841)" fill="#2f2e41"/>
    <path id="Path_11" data-name="Path 11" d="M746.356,545.711,759,690l17-2,12.564-131.8L858,682l18-5s-57.936-173.3-62.436-187.8c-4.933-15.9-44-22-44-22l-1.5-1.5C751.277,488.3,744.553,517.619,746.356,545.711Z" transform="translate(-208.936 -187.837)" fill="#2f2e41"/>
    <circle id="Ellipse_5" data-name="Ellipse 5" cx="24.561" cy="24.561" r="24.561" transform="translate(580.216 135.937)" fill="#ffb8b8"/>
    <path id="Path_12" data-name="Path 12" d="M831,386l-18.936,98.7s-25.94-5.18-35.18-11.42c-3.66-2.48-6.98-5.04-9.78-7.36a121.262,121.262,0,0,1-9.04-8.22s6.64-32.61,9.01-41.34c2.752-10.112,12.193-21.891,19.547-29.918a21.745,21.745,0,0,1,21.474-6.356Z" transform="translate(-208.936 -187.837)" fill="#ffd084"/>
    <path id="Path_13" data-name="Path 13" d="M776.884,473.28c-3.66-2.48-6.98-5.04-9.78-7.36,1.01-14.94,23.02-46.22,31.94-46.22C799.044,419.7,801.154,467.91,776.884,473.28Z" transform="translate(-208.936 -187.837)" opacity="0.2"/>
    <path id="Path_14" data-name="Path 14" d="M731.58,512.517a10.056,10.056,0,0,0,5.277-14.488l23.359-27.043-18.414-2.4-19.359,26.048a10.11,10.11,0,0,0,9.137,17.88Z" transform="translate(-208.936 -187.837)" fill="#ffb8b8"/>
    <path id="Path_15" data-name="Path 15" d="M796.886,381.225a16.32,16.32,0,0,0-3.026.347,12.5,12.5,0,0,0-8.918,7.8L756.064,449.7l-31,33,15.5,12.5,49-44,19.576-53.281a12.754,12.754,0,0,0-12.254-16.694Z" transform="translate(-208.936 -187.837)" fill="#ffd084"/>
    <path id="Path_16" data-name="Path 16" d="M815.167,372.67c3.5-5.232,6.254-12.488,2.406-17.466-3.8-4.914-11.292-4.19-17.11-6.365-8.1-3.029-12.8-12.549-11.338-21.076s8.31-15.594,16.464-18.486,17.348-1.951,25.333,1.379c9.829,4.1,18.261,12.03,21.8,22.076s1.646,22.108-5.689,29.83c-7.864,8.278-20.206,10.484-31.623,10.351" transform="translate(-208.936 -187.837)" fill="#2f2e41"/>
    <path id="Path_17" data-name="Path 17" d="M853.736,343.71c1,5.591,7.134,8.766,12.771,9.464s11.468-.2,16.955,1.269c9.674,2.584,16.055,11.888,19.567,21.266s5.07,19.5,9.633,28.412,13.411,16.771,23.389,15.938a25.732,25.732,0,0,1-48.394-1.569c-3.666-11.317.542-24.813-5.868-34.833-3.547-5.545-9.673-8.807-15.579-11.713s-12.106-5.889-16.066-11.148-4.751-13.563.129-17.981" transform="translate(-208.936 -187.837)" fill="#2f2e41"/>
    <path id="Path_18" data-name="Path 18" d="M973.339,711.948H653.045a1.191,1.191,0,0,1,0-2.381H973.339a1.191,1.191,0,1,1,0,2.381Z" transform="translate(-208.936 -187.837)" fill="#3f3d56"/>
    <path id="Path_19" data-name="Path 19" d="M405.989,410.989a67,67,0,1,1,67-67,67,67,0,0,1-67,67Zm0-132a65,65,0,1,0,65,65,65,65,0,0,0-65-65Z" transform="translate(-208.936 -187.837)" fill="#3f3d56"/>
    <path id="Path_20" data-name="Path 20" d="M154.974,37.028,93.245,143.945H216.7L154.974,37.028,93.245,143.945H216.7Z" fill="#434ee8"/>
  </g>
</svg>
