<?xml version="1.0" encoding="utf-8"?>
<!-- Generator: Adobe Illustrator 23.0.1, SVG Export Plug-In . SVG Version: 6.00 Build 0)  -->
<svg version="1.1" xmlns="http://www.w3.org/2000/svg" xmlns:xlink="http://www.w3.org/1999/xlink" x="0px" y="0px"
	 viewBox="0 0 47 50" style="enable-background:new 0 0 47 50;" xml:space="preserve">
<style type="text/css">
	.st0{display:none;}
	.st1{fill:none;stroke:#000000;stroke-width:0.75;stroke-miterlimit:10;}
</style>
<g id="Layer_2" class="st0">
	
		<image style="display:inline;overflow:visible;" width="61" height="67" xlink:href="8EDE10B2.jpg"  transform="matrix(1.0164 0 0 1.0164 -4 -10)">
	</image>
</g>
<g id="Layer_1">
	<line class="st1" x1="15.5" y1="18.5" x2="20.5" y2="18.5"/>
	<line class="st1" x1="15.4" y1="26.5" x2="32.4" y2="26.5"/>
	<line class="st1" x1="15.3" y1="34.5" x2="32.3" y2="34.5"/>
	<line class="st1" x1="27.4" y1="4" x2="27.4" y2="15.5"/>
	<line class="st1" x1="39" y1="15.5" x2="27" y2="15.5"/>
	<g>
		<line class="st1" x1="28" y1="4" x2="38.9" y2="14.9"/>
		<path class="st1" d="M28,4H14.1c-2.9,0-5.2,2.3-5.2,5.2v30.6c0,2.9,2.3,5.2,5.2,5.2h19.6c2.9,0,5.2-2.3,5.2-5.2V14.9L28,4z"/>
	</g>
</g>
</svg>
