<?xml version="1.0" encoding="utf-8"?>
<!-- Generator: Adobe Illustrator 23.0.1, SVG Export Plug-In . SVG Version: 6.00 Build 0)  -->
<svg version="1.1" id="Layer_1" xmlns="http://www.w3.org/2000/svg" xmlns:xlink="http://www.w3.org/1999/xlink" x="0px" y="0px"
	 viewBox="0 0 1920 1080" style="enable-background:new 0 0 1920 1080;" xml:space="preserve">
<style type="text/css">
	.st0{fill:#bababa;}
</style>
<g>
	<circle class="st0" cx="0" cy="0" r="2"/>
</g>
<g>
	<circle class="st0" cx="64.0" cy="0" r="2"/>
</g>
<g>
	<circle class="st0" cx="128.0" cy="0" r="2"/>
</g>
<g>
	<circle class="st0" cx="192.0" cy="0" r="2"/>
</g>
<g>
	<circle class="st0" cx="256.0" cy="0" r="2"/>
</g>
<g>
	<circle class="st0" cx="320.0" cy="0" r="2"/>
</g>
<g>
	<circle class="st0" cx="384.0" cy="0" r="2"/>
</g>
<g>
	<circle class="st0" cx="448.0" cy="0" r="2"/>
</g>
<g>
	<circle class="st0" cx="512.0" cy="0" r="2"/>
</g>
<g>
	<circle class="st0" cx="576.0" cy="0" r="2"/>
</g>
<g>
	<circle class="st0" cx="640.0" cy="0" r="2"/>
</g>
<g>
	<circle class="st0" cx="704.0" cy="0" r="2"/>
</g>
<g>
	<circle class="st0" cx="768.0" cy="0" r="2"/>
</g>
<g>
	<circle class="st0" cx="832.0" cy="0" r="2"/>
</g>
<g>
	<circle class="st0" cx="896.0" cy="0" r="2"/>
</g>
<g>
	<circle class="st0" cx="960.0" cy="0" r="2"/>
</g>
<g>
	<circle class="st0" cx="1024.0" cy="0" r="2"/>
</g>
<g>
	<circle class="st0" cx="1088.0" cy="0" r="2"/>
</g>
<g>
	<circle class="st0" cx="1152.0" cy="0" r="2"/>
</g>
<g>
	<circle class="st0" cx="1216.0" cy="0" r="2"/>
</g>
<g>
	<circle class="st0" cx="1280.0" cy="0" r="2"/>
</g>
<g>
	<circle class="st0" cx="1344.0" cy="0" r="2"/>
</g>
<g>
	<circle class="st0" cx="1408.0" cy="0" r="2"/>
</g>
<g>
	<circle class="st0" cx="1472.0" cy="0" r="2"/>
</g>
<g>
	<circle class="st0" cx="1536.0" cy="0" r="2"/>
</g>
<g>
	<circle class="st0" cx="1600.0" cy="0" r="2"/>
</g>
<g>
	<circle class="st0" cx="1664.0" cy="0" r="2"/>
</g>
<g>
	<circle class="st0" cx="1728.0" cy="0" r="2"/>
</g>
<g>
	<circle class="st0" cx="1792.0" cy="0" r="2"/>
</g>
<g>
	<circle class="st0" cx="1856.0" cy="0" r="2"/>
</g>
<g>
	<circle class="st0" cx="0" cy="64.0" r="2"/>
</g>
<g>
	<circle class="st0" cx="64.0" cy="64.0" r="2"/>
</g>
<g>
	<circle class="st0" cx="128.0" cy="64.0" r="2"/>
</g>
<g>
	<circle class="st0" cx="192.0" cy="64.0" r="2"/>
</g>
<g>
	<circle class="st0" cx="256.0" cy="64.0" r="2"/>
</g>
<g>
	<circle class="st0" cx="320.0" cy="64.0" r="2"/>
</g>
<g>
	<circle class="st0" cx="384.0" cy="64.0" r="2"/>
</g>
<g>
	<circle class="st0" cx="448.0" cy="64.0" r="2"/>
</g>
<g>
	<circle class="st0" cx="512.0" cy="64.0" r="2"/>
</g>
<g>
	<circle class="st0" cx="576.0" cy="64.0" r="2"/>
</g>
<g>
	<circle class="st0" cx="640.0" cy="64.0" r="2"/>
</g>
<g>
	<circle class="st0" cx="704.0" cy="64.0" r="2"/>
</g>
<g>
	<circle class="st0" cx="768.0" cy="64.0" r="2"/>
</g>
<g>
	<circle class="st0" cx="832.0" cy="64.0" r="2"/>
</g>
<g>
	<circle class="st0" cx="896.0" cy="64.0" r="2"/>
</g>
<g>
	<circle class="st0" cx="960.0" cy="64.0" r="2"/>
</g>
<g>
	<circle class="st0" cx="1024.0" cy="64.0" r="2"/>
</g>
<g>
	<circle class="st0" cx="1088.0" cy="64.0" r="2"/>
</g>
<g>
	<circle class="st0" cx="1152.0" cy="64.0" r="2"/>
</g>
<g>
	<circle class="st0" cx="1216.0" cy="64.0" r="2"/>
</g>
<g>
	<circle class="st0" cx="1280.0" cy="64.0" r="2"/>
</g>
<g>
	<circle class="st0" cx="1344.0" cy="64.0" r="2"/>
</g>
<g>
	<circle class="st0" cx="1408.0" cy="64.0" r="2"/>
</g>
<g>
	<circle class="st0" cx="1472.0" cy="64.0" r="2"/>
</g>
<g>
	<circle class="st0" cx="1536.0" cy="64.0" r="2"/>
</g>
<g>
	<circle class="st0" cx="1600.0" cy="64.0" r="2"/>
</g>
<g>
	<circle class="st0" cx="1664.0" cy="64.0" r="2"/>
</g>
<g>
	<circle class="st0" cx="1728.0" cy="64.0" r="2"/>
</g>
<g>
	<circle class="st0" cx="1792.0" cy="64.0" r="2"/>
</g>
<g>
	<circle class="st0" cx="1856.0" cy="64.0" r="2"/>
</g>
<g>
	<circle class="st0" cx="0" cy="128.0" r="2"/>
</g>
<g>
	<circle class="st0" cx="64.0" cy="128.0" r="2"/>
</g>
<g>
	<circle class="st0" cx="128.0" cy="128.0" r="2"/>
</g>
<g>
	<circle class="st0" cx="192.0" cy="128.0" r="2"/>
</g>
<g>
	<circle class="st0" cx="256.0" cy="128.0" r="2"/>
</g>
<g>
	<circle class="st0" cx="320.0" cy="128.0" r="2"/>
</g>
<g>
	<circle class="st0" cx="384.0" cy="128.0" r="2"/>
</g>
<g>
	<circle class="st0" cx="448.0" cy="128.0" r="2"/>
</g>
<g>
	<circle class="st0" cx="512.0" cy="128.0" r="2"/>
</g>
<g>
	<circle class="st0" cx="576.0" cy="128.0" r="2"/>
</g>
<g>
	<circle class="st0" cx="640.0" cy="128.0" r="2"/>
</g>
<g>
	<circle class="st0" cx="704.0" cy="128.0" r="2"/>
</g>
<g>
	<circle class="st0" cx="768.0" cy="128.0" r="2"/>
</g>
<g>
	<circle class="st0" cx="832.0" cy="128.0" r="2"/>
</g>
<g>
	<circle class="st0" cx="896.0" cy="128.0" r="2"/>
</g>
<g>
	<circle class="st0" cx="960.0" cy="128.0" r="2"/>
</g>
<g>
	<circle class="st0" cx="1024.0" cy="128.0" r="2"/>
</g>
<g>
	<circle class="st0" cx="1088.0" cy="128.0" r="2"/>
</g>
<g>
	<circle class="st0" cx="1152.0" cy="128.0" r="2"/>
</g>
<g>
	<circle class="st0" cx="1216.0" cy="128.0" r="2"/>
</g>
<g>
	<circle class="st0" cx="1280.0" cy="128.0" r="2"/>
</g>
<g>
	<circle class="st0" cx="1344.0" cy="128.0" r="2"/>
</g>
<g>
	<circle class="st0" cx="1408.0" cy="128.0" r="2"/>
</g>
<g>
	<circle class="st0" cx="1472.0" cy="128.0" r="2"/>
</g>
<g>
	<circle class="st0" cx="1536.0" cy="128.0" r="2"/>
</g>
<g>
	<circle class="st0" cx="1600.0" cy="128.0" r="2"/>
</g>
<g>
	<circle class="st0" cx="1664.0" cy="128.0" r="2"/>
</g>
<g>
	<circle class="st0" cx="1728.0" cy="128.0" r="2"/>
</g>
<g>
	<circle class="st0" cx="1792.0" cy="128.0" r="2"/>
</g>
<g>
	<circle class="st0" cx="1856.0" cy="128.0" r="2"/>
</g>
<g>
	<circle class="st0" cx="0" cy="192.0" r="2"/>
</g>
<g>
	<circle class="st0" cx="64.0" cy="192.0" r="2"/>
</g>
<g>
	<circle class="st0" cx="128.0" cy="192.0" r="2"/>
</g>
<g>
	<circle class="st0" cx="192.0" cy="192.0" r="2"/>
</g>
<g>
	<circle class="st0" cx="256.0" cy="192.0" r="2"/>
</g>
<g>
	<circle class="st0" cx="320.0" cy="192.0" r="2"/>
</g>
<g>
	<circle class="st0" cx="384.0" cy="192.0" r="2"/>
</g>
<g>
	<circle class="st0" cx="448.0" cy="192.0" r="2"/>
</g>
<g>
	<circle class="st0" cx="512.0" cy="192.0" r="2"/>
</g>
<g>
	<circle class="st0" cx="576.0" cy="192.0" r="2"/>
</g>
<g>
	<circle class="st0" cx="640.0" cy="192.0" r="2"/>
</g>
<g>
	<circle class="st0" cx="704.0" cy="192.0" r="2"/>
</g>
<g>
	<circle class="st0" cx="768.0" cy="192.0" r="2"/>
</g>
<g>
	<circle class="st0" cx="832.0" cy="192.0" r="2"/>
</g>
<g>
	<circle class="st0" cx="896.0" cy="192.0" r="2"/>
</g>
<g>
	<circle class="st0" cx="960.0" cy="192.0" r="2"/>
</g>
<g>
	<circle class="st0" cx="1024.0" cy="192.0" r="2"/>
</g>
<g>
	<circle class="st0" cx="1088.0" cy="192.0" r="2"/>
</g>
<g>
	<circle class="st0" cx="1152.0" cy="192.0" r="2"/>
</g>
<g>
	<circle class="st0" cx="1216.0" cy="192.0" r="2"/>
</g>
<g>
	<circle class="st0" cx="1280.0" cy="192.0" r="2"/>
</g>
<g>
	<circle class="st0" cx="1344.0" cy="192.0" r="2"/>
</g>
<g>
	<circle class="st0" cx="1408.0" cy="192.0" r="2"/>
</g>
<g>
	<circle class="st0" cx="1472.0" cy="192.0" r="2"/>
</g>
<g>
	<circle class="st0" cx="1536.0" cy="192.0" r="2"/>
</g>
<g>
	<circle class="st0" cx="1600.0" cy="192.0" r="2"/>
</g>
<g>
	<circle class="st0" cx="1664.0" cy="192.0" r="2"/>
</g>
<g>
	<circle class="st0" cx="1728.0" cy="192.0" r="2"/>
</g>
<g>
	<circle class="st0" cx="1792.0" cy="192.0" r="2"/>
</g>
<g>
	<circle class="st0" cx="1856.0" cy="192.0" r="2"/>
</g>
<g>
	<circle class="st0" cx="0" cy="256.0" r="2"/>
</g>
<g>
	<circle class="st0" cx="64.0" cy="256.0" r="2"/>
</g>
<g>
	<circle class="st0" cx="128.0" cy="256.0" r="2"/>
</g>
<g>
	<circle class="st0" cx="192.0" cy="256.0" r="2"/>
</g>
<g>
	<circle class="st0" cx="256.0" cy="256.0" r="2"/>
</g>
<g>
	<circle class="st0" cx="320.0" cy="256.0" r="2"/>
</g>
<g>
	<circle class="st0" cx="384.0" cy="256.0" r="2"/>
</g>
<g>
	<circle class="st0" cx="448.0" cy="256.0" r="2"/>
</g>
<g>
	<circle class="st0" cx="512.0" cy="256.0" r="2"/>
</g>
<g>
	<circle class="st0" cx="576.0" cy="256.0" r="2"/>
</g>
<g>
	<circle class="st0" cx="640.0" cy="256.0" r="2"/>
</g>
<g>
	<circle class="st0" cx="704.0" cy="256.0" r="2"/>
</g>
<g>
	<circle class="st0" cx="768.0" cy="256.0" r="2"/>
</g>
<g>
	<circle class="st0" cx="832.0" cy="256.0" r="2"/>
</g>
<g>
	<circle class="st0" cx="896.0" cy="256.0" r="2"/>
</g>
<g>
	<circle class="st0" cx="960.0" cy="256.0" r="2"/>
</g>
<g>
	<circle class="st0" cx="1024.0" cy="256.0" r="2"/>
</g>
<g>
	<circle class="st0" cx="1088.0" cy="256.0" r="2"/>
</g>
<g>
	<circle class="st0" cx="1152.0" cy="256.0" r="2"/>
</g>
<g>
	<circle class="st0" cx="1216.0" cy="256.0" r="2"/>
</g>
<g>
	<circle class="st0" cx="1280.0" cy="256.0" r="2"/>
</g>
<g>
	<circle class="st0" cx="1344.0" cy="256.0" r="2"/>
</g>
<g>
	<circle class="st0" cx="1408.0" cy="256.0" r="2"/>
</g>
<g>
	<circle class="st0" cx="1472.0" cy="256.0" r="2"/>
</g>
<g>
	<circle class="st0" cx="1536.0" cy="256.0" r="2"/>
</g>
<g>
	<circle class="st0" cx="1600.0" cy="256.0" r="2"/>
</g>
<g>
	<circle class="st0" cx="1664.0" cy="256.0" r="2"/>
</g>
<g>
	<circle class="st0" cx="1728.0" cy="256.0" r="2"/>
</g>
<g>
	<circle class="st0" cx="1792.0" cy="256.0" r="2"/>
</g>
<g>
	<circle class="st0" cx="1856.0" cy="256.0" r="2"/>
</g>
<g>
	<circle class="st0" cx="0" cy="320.0" r="2"/>
</g>
<g>
	<circle class="st0" cx="64.0" cy="320.0" r="2"/>
</g>
<g>
	<circle class="st0" cx="128.0" cy="320.0" r="2"/>
</g>
<g>
	<circle class="st0" cx="192.0" cy="320.0" r="2"/>
</g>
<g>
	<circle class="st0" cx="256.0" cy="320.0" r="2"/>
</g>
<g>
	<circle class="st0" cx="320.0" cy="320.0" r="2"/>
</g>
<g>
	<circle class="st0" cx="384.0" cy="320.0" r="2"/>
</g>
<g>
	<circle class="st0" cx="448.0" cy="320.0" r="2"/>
</g>
<g>
	<circle class="st0" cx="512.0" cy="320.0" r="2"/>
</g>
<g>
	<circle class="st0" cx="576.0" cy="320.0" r="2"/>
</g>
<g>
	<circle class="st0" cx="640.0" cy="320.0" r="2"/>
</g>
<g>
	<circle class="st0" cx="704.0" cy="320.0" r="2"/>
</g>
<g>
	<circle class="st0" cx="768.0" cy="320.0" r="2"/>
</g>
<g>
	<circle class="st0" cx="832.0" cy="320.0" r="2"/>
</g>
<g>
	<circle class="st0" cx="896.0" cy="320.0" r="2"/>
</g>
<g>
	<circle class="st0" cx="960.0" cy="320.0" r="2"/>
</g>
<g>
	<circle class="st0" cx="1024.0" cy="320.0" r="2"/>
</g>
<g>
	<circle class="st0" cx="1088.0" cy="320.0" r="2"/>
</g>
<g>
	<circle class="st0" cx="1152.0" cy="320.0" r="2"/>
</g>
<g>
	<circle class="st0" cx="1216.0" cy="320.0" r="2"/>
</g>
<g>
	<circle class="st0" cx="1280.0" cy="320.0" r="2"/>
</g>
<g>
	<circle class="st0" cx="1344.0" cy="320.0" r="2"/>
</g>
<g>
	<circle class="st0" cx="1408.0" cy="320.0" r="2"/>
</g>
<g>
	<circle class="st0" cx="1472.0" cy="320.0" r="2"/>
</g>
<g>
	<circle class="st0" cx="1536.0" cy="320.0" r="2"/>
</g>
<g>
	<circle class="st0" cx="1600.0" cy="320.0" r="2"/>
</g>
<g>
	<circle class="st0" cx="1664.0" cy="320.0" r="2"/>
</g>
<g>
	<circle class="st0" cx="1728.0" cy="320.0" r="2"/>
</g>
<g>
	<circle class="st0" cx="1792.0" cy="320.0" r="2"/>
</g>
<g>
	<circle class="st0" cx="1856.0" cy="320.0" r="2"/>
</g>
<g>
	<circle class="st0" cx="0" cy="384.0" r="2"/>
</g>
<g>
	<circle class="st0" cx="64.0" cy="384.0" r="2"/>
</g>
<g>
	<circle class="st0" cx="128.0" cy="384.0" r="2"/>
</g>
<g>
	<circle class="st0" cx="192.0" cy="384.0" r="2"/>
</g>
<g>
	<circle class="st0" cx="256.0" cy="384.0" r="2"/>
</g>
<g>
	<circle class="st0" cx="320.0" cy="384.0" r="2"/>
</g>
<g>
	<circle class="st0" cx="384.0" cy="384.0" r="2"/>
</g>
<g>
	<circle class="st0" cx="448.0" cy="384.0" r="2"/>
</g>
<g>
	<circle class="st0" cx="512.0" cy="384.0" r="2"/>
</g>
<g>
	<circle class="st0" cx="576.0" cy="384.0" r="2"/>
</g>
<g>
	<circle class="st0" cx="640.0" cy="384.0" r="2"/>
</g>
<g>
	<circle class="st0" cx="704.0" cy="384.0" r="2"/>
</g>
<g>
	<circle class="st0" cx="768.0" cy="384.0" r="2"/>
</g>
<g>
	<circle class="st0" cx="832.0" cy="384.0" r="2"/>
</g>
<g>
	<circle class="st0" cx="896.0" cy="384.0" r="2"/>
</g>
<g>
	<circle class="st0" cx="960.0" cy="384.0" r="2"/>
</g>
<g>
	<circle class="st0" cx="1024.0" cy="384.0" r="2"/>
</g>
<g>
	<circle class="st0" cx="1088.0" cy="384.0" r="2"/>
</g>
<g>
	<circle class="st0" cx="1152.0" cy="384.0" r="2"/>
</g>
<g>
	<circle class="st0" cx="1216.0" cy="384.0" r="2"/>
</g>
<g>
	<circle class="st0" cx="1280.0" cy="384.0" r="2"/>
</g>
<g>
	<circle class="st0" cx="1344.0" cy="384.0" r="2"/>
</g>
<g>
	<circle class="st0" cx="1408.0" cy="384.0" r="2"/>
</g>
<g>
	<circle class="st0" cx="1472.0" cy="384.0" r="2"/>
</g>
<g>
	<circle class="st0" cx="1536.0" cy="384.0" r="2"/>
</g>
<g>
	<circle class="st0" cx="1600.0" cy="384.0" r="2"/>
</g>
<g>
	<circle class="st0" cx="1664.0" cy="384.0" r="2"/>
</g>
<g>
	<circle class="st0" cx="1728.0" cy="384.0" r="2"/>
</g>
<g>
	<circle class="st0" cx="1792.0" cy="384.0" r="2"/>
</g>
<g>
	<circle class="st0" cx="1856.0" cy="384.0" r="2"/>
</g>
<g>
	<circle class="st0" cx="0" cy="448.0" r="2"/>
</g>
<g>
	<circle class="st0" cx="64.0" cy="448.0" r="2"/>
</g>
<g>
	<circle class="st0" cx="128.0" cy="448.0" r="2"/>
</g>
<g>
	<circle class="st0" cx="192.0" cy="448.0" r="2"/>
</g>
<g>
	<circle class="st0" cx="256.0" cy="448.0" r="2"/>
</g>
<g>
	<circle class="st0" cx="320.0" cy="448.0" r="2"/>
</g>
<g>
	<circle class="st0" cx="384.0" cy="448.0" r="2"/>
</g>
<g>
	<circle class="st0" cx="448.0" cy="448.0" r="2"/>
</g>
<g>
	<circle class="st0" cx="512.0" cy="448.0" r="2"/>
</g>
<g>
	<circle class="st0" cx="576.0" cy="448.0" r="2"/>
</g>
<g>
	<circle class="st0" cx="640.0" cy="448.0" r="2"/>
</g>
<g>
	<circle class="st0" cx="704.0" cy="448.0" r="2"/>
</g>
<g>
	<circle class="st0" cx="768.0" cy="448.0" r="2"/>
</g>
<g>
	<circle class="st0" cx="832.0" cy="448.0" r="2"/>
</g>
<g>
	<circle class="st0" cx="896.0" cy="448.0" r="2"/>
</g>
<g>
	<circle class="st0" cx="960.0" cy="448.0" r="2"/>
</g>
<g>
	<circle class="st0" cx="1024.0" cy="448.0" r="2"/>
</g>
<g>
	<circle class="st0" cx="1088.0" cy="448.0" r="2"/>
</g>
<g>
	<circle class="st0" cx="1152.0" cy="448.0" r="2"/>
</g>
<g>
	<circle class="st0" cx="1216.0" cy="448.0" r="2"/>
</g>
<g>
	<circle class="st0" cx="1280.0" cy="448.0" r="2"/>
</g>
<g>
	<circle class="st0" cx="1344.0" cy="448.0" r="2"/>
</g>
<g>
	<circle class="st0" cx="1408.0" cy="448.0" r="2"/>
</g>
<g>
	<circle class="st0" cx="1472.0" cy="448.0" r="2"/>
</g>
<g>
	<circle class="st0" cx="1536.0" cy="448.0" r="2"/>
</g>
<g>
	<circle class="st0" cx="1600.0" cy="448.0" r="2"/>
</g>
<g>
	<circle class="st0" cx="1664.0" cy="448.0" r="2"/>
</g>
<g>
	<circle class="st0" cx="1728.0" cy="448.0" r="2"/>
</g>
<g>
	<circle class="st0" cx="1792.0" cy="448.0" r="2"/>
</g>
<g>
	<circle class="st0" cx="1856.0" cy="448.0" r="2"/>
</g>
<g>
	<circle class="st0" cx="0" cy="512.0" r="2"/>
</g>
<g>
	<circle class="st0" cx="64.0" cy="512.0" r="2"/>
</g>
<g>
	<circle class="st0" cx="128.0" cy="512.0" r="2"/>
</g>
<g>
	<circle class="st0" cx="192.0" cy="512.0" r="2"/>
</g>
<g>
	<circle class="st0" cx="256.0" cy="512.0" r="2"/>
</g>
<g>
	<circle class="st0" cx="320.0" cy="512.0" r="2"/>
</g>
<g>
	<circle class="st0" cx="384.0" cy="512.0" r="2"/>
</g>
<g>
	<circle class="st0" cx="448.0" cy="512.0" r="2"/>
</g>
<g>
	<circle class="st0" cx="512.0" cy="512.0" r="2"/>
</g>
<g>
	<circle class="st0" cx="576.0" cy="512.0" r="2"/>
</g>
<g>
	<circle class="st0" cx="640.0" cy="512.0" r="2"/>
</g>
<g>
	<circle class="st0" cx="704.0" cy="512.0" r="2"/>
</g>
<g>
	<circle class="st0" cx="768.0" cy="512.0" r="2"/>
</g>
<g>
	<circle class="st0" cx="832.0" cy="512.0" r="2"/>
</g>
<g>
	<circle class="st0" cx="896.0" cy="512.0" r="2"/>
</g>
<g>
	<circle class="st0" cx="960.0" cy="512.0" r="2"/>
</g>
<g>
	<circle class="st0" cx="1024.0" cy="512.0" r="2"/>
</g>
<g>
	<circle class="st0" cx="1088.0" cy="512.0" r="2"/>
</g>
<g>
	<circle class="st0" cx="1152.0" cy="512.0" r="2"/>
</g>
<g>
	<circle class="st0" cx="1216.0" cy="512.0" r="2"/>
</g>
<g>
	<circle class="st0" cx="1280.0" cy="512.0" r="2"/>
</g>
<g>
	<circle class="st0" cx="1344.0" cy="512.0" r="2"/>
</g>
<g>
	<circle class="st0" cx="1408.0" cy="512.0" r="2"/>
</g>
<g>
	<circle class="st0" cx="1472.0" cy="512.0" r="2"/>
</g>
<g>
	<circle class="st0" cx="1536.0" cy="512.0" r="2"/>
</g>
<g>
	<circle class="st0" cx="1600.0" cy="512.0" r="2"/>
</g>
<g>
	<circle class="st0" cx="1664.0" cy="512.0" r="2"/>
</g>
<g>
	<circle class="st0" cx="1728.0" cy="512.0" r="2"/>
</g>
<g>
	<circle class="st0" cx="1792.0" cy="512.0" r="2"/>
</g>
<g>
	<circle class="st0" cx="1856.0" cy="512.0" r="2"/>
</g>
<g>
	<circle class="st0" cx="0" cy="576.0" r="2"/>
</g>
<g>
	<circle class="st0" cx="64.0" cy="576.0" r="2"/>
</g>
<g>
	<circle class="st0" cx="128.0" cy="576.0" r="2"/>
</g>
<g>
	<circle class="st0" cx="192.0" cy="576.0" r="2"/>
</g>
<g>
	<circle class="st0" cx="256.0" cy="576.0" r="2"/>
</g>
<g>
	<circle class="st0" cx="320.0" cy="576.0" r="2"/>
</g>
<g>
	<circle class="st0" cx="384.0" cy="576.0" r="2"/>
</g>
<g>
	<circle class="st0" cx="448.0" cy="576.0" r="2"/>
</g>
<g>
	<circle class="st0" cx="512.0" cy="576.0" r="2"/>
</g>
<g>
	<circle class="st0" cx="576.0" cy="576.0" r="2"/>
</g>
<g>
	<circle class="st0" cx="640.0" cy="576.0" r="2"/>
</g>
<g>
	<circle class="st0" cx="704.0" cy="576.0" r="2"/>
</g>
<g>
	<circle class="st0" cx="768.0" cy="576.0" r="2"/>
</g>
<g>
	<circle class="st0" cx="832.0" cy="576.0" r="2"/>
</g>
<g>
	<circle class="st0" cx="896.0" cy="576.0" r="2"/>
</g>
<g>
	<circle class="st0" cx="960.0" cy="576.0" r="2"/>
</g>
<g>
	<circle class="st0" cx="1024.0" cy="576.0" r="2"/>
</g>
<g>
	<circle class="st0" cx="1088.0" cy="576.0" r="2"/>
</g>
<g>
	<circle class="st0" cx="1152.0" cy="576.0" r="2"/>
</g>
<g>
	<circle class="st0" cx="1216.0" cy="576.0" r="2"/>
</g>
<g>
	<circle class="st0" cx="1280.0" cy="576.0" r="2"/>
</g>
<g>
	<circle class="st0" cx="1344.0" cy="576.0" r="2"/>
</g>
<g>
	<circle class="st0" cx="1408.0" cy="576.0" r="2"/>
</g>
<g>
	<circle class="st0" cx="1472.0" cy="576.0" r="2"/>
</g>
<g>
	<circle class="st0" cx="1536.0" cy="576.0" r="2"/>
</g>
<g>
	<circle class="st0" cx="1600.0" cy="576.0" r="2"/>
</g>
<g>
	<circle class="st0" cx="1664.0" cy="576.0" r="2"/>
</g>
<g>
	<circle class="st0" cx="1728.0" cy="576.0" r="2"/>
</g>
<g>
	<circle class="st0" cx="1792.0" cy="576.0" r="2"/>
</g>
<g>
	<circle class="st0" cx="1856.0" cy="576.0" r="2"/>
</g>
<g>
	<circle class="st0" cx="0" cy="640.0" r="2"/>
</g>
<g>
	<circle class="st0" cx="64.0" cy="640.0" r="2"/>
</g>
<g>
	<circle class="st0" cx="128.0" cy="640.0" r="2"/>
</g>
<g>
	<circle class="st0" cx="192.0" cy="640.0" r="2"/>
</g>
<g>
	<circle class="st0" cx="256.0" cy="640.0" r="2"/>
</g>
<g>
	<circle class="st0" cx="320.0" cy="640.0" r="2"/>
</g>
<g>
	<circle class="st0" cx="384.0" cy="640.0" r="2"/>
</g>
<g>
	<circle class="st0" cx="448.0" cy="640.0" r="2"/>
</g>
<g>
	<circle class="st0" cx="512.0" cy="640.0" r="2"/>
</g>
<g>
	<circle class="st0" cx="576.0" cy="640.0" r="2"/>
</g>
<g>
	<circle class="st0" cx="640.0" cy="640.0" r="2"/>
</g>
<g>
	<circle class="st0" cx="704.0" cy="640.0" r="2"/>
</g>
<g>
	<circle class="st0" cx="768.0" cy="640.0" r="2"/>
</g>
<g>
	<circle class="st0" cx="832.0" cy="640.0" r="2"/>
</g>
<g>
	<circle class="st0" cx="896.0" cy="640.0" r="2"/>
</g>
<g>
	<circle class="st0" cx="960.0" cy="640.0" r="2"/>
</g>
<g>
	<circle class="st0" cx="1024.0" cy="640.0" r="2"/>
</g>
<g>
	<circle class="st0" cx="1088.0" cy="640.0" r="2"/>
</g>
<g>
	<circle class="st0" cx="1152.0" cy="640.0" r="2"/>
</g>
<g>
	<circle class="st0" cx="1216.0" cy="640.0" r="2"/>
</g>
<g>
	<circle class="st0" cx="1280.0" cy="640.0" r="2"/>
</g>
<g>
	<circle class="st0" cx="1344.0" cy="640.0" r="2"/>
</g>
<g>
	<circle class="st0" cx="1408.0" cy="640.0" r="2"/>
</g>
<g>
	<circle class="st0" cx="1472.0" cy="640.0" r="2"/>
</g>
<g>
	<circle class="st0" cx="1536.0" cy="640.0" r="2"/>
</g>
<g>
	<circle class="st0" cx="1600.0" cy="640.0" r="2"/>
</g>
<g>
	<circle class="st0" cx="1664.0" cy="640.0" r="2"/>
</g>
<g>
	<circle class="st0" cx="1728.0" cy="640.0" r="2"/>
</g>
<g>
	<circle class="st0" cx="1792.0" cy="640.0" r="2"/>
</g>
<g>
	<circle class="st0" cx="1856.0" cy="640.0" r="2"/>
</g>
<g>
	<circle class="st0" cx="0" cy="704.0" r="2"/>
</g>
<g>
	<circle class="st0" cx="64.0" cy="704.0" r="2"/>
</g>
<g>
	<circle class="st0" cx="128.0" cy="704.0" r="2"/>
</g>
<g>
	<circle class="st0" cx="192.0" cy="704.0" r="2"/>
</g>
<g>
	<circle class="st0" cx="256.0" cy="704.0" r="2"/>
</g>
<g>
	<circle class="st0" cx="320.0" cy="704.0" r="2"/>
</g>
<g>
	<circle class="st0" cx="384.0" cy="704.0" r="2"/>
</g>
<g>
	<circle class="st0" cx="448.0" cy="704.0" r="2"/>
</g>
<g>
	<circle class="st0" cx="512.0" cy="704.0" r="2"/>
</g>
<g>
	<circle class="st0" cx="576.0" cy="704.0" r="2"/>
</g>
<g>
	<circle class="st0" cx="640.0" cy="704.0" r="2"/>
</g>
<g>
	<circle class="st0" cx="704.0" cy="704.0" r="2"/>
</g>
<g>
	<circle class="st0" cx="768.0" cy="704.0" r="2"/>
</g>
<g>
	<circle class="st0" cx="832.0" cy="704.0" r="2"/>
</g>
<g>
	<circle class="st0" cx="896.0" cy="704.0" r="2"/>
</g>
<g>
	<circle class="st0" cx="960.0" cy="704.0" r="2"/>
</g>
<g>
	<circle class="st0" cx="1024.0" cy="704.0" r="2"/>
</g>
<g>
	<circle class="st0" cx="1088.0" cy="704.0" r="2"/>
</g>
<g>
	<circle class="st0" cx="1152.0" cy="704.0" r="2"/>
</g>
<g>
	<circle class="st0" cx="1216.0" cy="704.0" r="2"/>
</g>
<g>
	<circle class="st0" cx="1280.0" cy="704.0" r="2"/>
</g>
<g>
	<circle class="st0" cx="1344.0" cy="704.0" r="2"/>
</g>
<g>
	<circle class="st0" cx="1408.0" cy="704.0" r="2"/>
</g>
<g>
	<circle class="st0" cx="1472.0" cy="704.0" r="2"/>
</g>
<g>
	<circle class="st0" cx="1536.0" cy="704.0" r="2"/>
</g>
<g>
	<circle class="st0" cx="1600.0" cy="704.0" r="2"/>
</g>
<g>
	<circle class="st0" cx="1664.0" cy="704.0" r="2"/>
</g>
<g>
	<circle class="st0" cx="1728.0" cy="704.0" r="2"/>
</g>
<g>
	<circle class="st0" cx="1792.0" cy="704.0" r="2"/>
</g>
<g>
	<circle class="st0" cx="1856.0" cy="704.0" r="2"/>
</g>
<g>
	<circle class="st0" cx="0" cy="768.0" r="2"/>
</g>
<g>
	<circle class="st0" cx="64.0" cy="768.0" r="2"/>
</g>
<g>
	<circle class="st0" cx="128.0" cy="768.0" r="2"/>
</g>
<g>
	<circle class="st0" cx="192.0" cy="768.0" r="2"/>
</g>
<g>
	<circle class="st0" cx="256.0" cy="768.0" r="2"/>
</g>
<g>
	<circle class="st0" cx="320.0" cy="768.0" r="2"/>
</g>
<g>
	<circle class="st0" cx="384.0" cy="768.0" r="2"/>
</g>
<g>
	<circle class="st0" cx="448.0" cy="768.0" r="2"/>
</g>
<g>
	<circle class="st0" cx="512.0" cy="768.0" r="2"/>
</g>
<g>
	<circle class="st0" cx="576.0" cy="768.0" r="2"/>
</g>
<g>
	<circle class="st0" cx="640.0" cy="768.0" r="2"/>
</g>
<g>
	<circle class="st0" cx="704.0" cy="768.0" r="2"/>
</g>
<g>
	<circle class="st0" cx="768.0" cy="768.0" r="2"/>
</g>
<g>
	<circle class="st0" cx="832.0" cy="768.0" r="2"/>
</g>
<g>
	<circle class="st0" cx="896.0" cy="768.0" r="2"/>
</g>
<g>
	<circle class="st0" cx="960.0" cy="768.0" r="2"/>
</g>
<g>
	<circle class="st0" cx="1024.0" cy="768.0" r="2"/>
</g>
<g>
	<circle class="st0" cx="1088.0" cy="768.0" r="2"/>
</g>
<g>
	<circle class="st0" cx="1152.0" cy="768.0" r="2"/>
</g>
<g>
	<circle class="st0" cx="1216.0" cy="768.0" r="2"/>
</g>
<g>
	<circle class="st0" cx="1280.0" cy="768.0" r="2"/>
</g>
<g>
	<circle class="st0" cx="1344.0" cy="768.0" r="2"/>
</g>
<g>
	<circle class="st0" cx="1408.0" cy="768.0" r="2"/>
</g>
<g>
	<circle class="st0" cx="1472.0" cy="768.0" r="2"/>
</g>
<g>
	<circle class="st0" cx="1536.0" cy="768.0" r="2"/>
</g>
<g>
	<circle class="st0" cx="1600.0" cy="768.0" r="2"/>
</g>
<g>
	<circle class="st0" cx="1664.0" cy="768.0" r="2"/>
</g>
<g>
	<circle class="st0" cx="1728.0" cy="768.0" r="2"/>
</g>
<g>
	<circle class="st0" cx="1792.0" cy="768.0" r="2"/>
</g>
<g>
	<circle class="st0" cx="1856.0" cy="768.0" r="2"/>
</g>
<g>
	<circle class="st0" cx="0" cy="832.0" r="2"/>
</g>
<g>
	<circle class="st0" cx="64.0" cy="832.0" r="2"/>
</g>
<g>
	<circle class="st0" cx="128.0" cy="832.0" r="2"/>
</g>
<g>
	<circle class="st0" cx="192.0" cy="832.0" r="2"/>
</g>
<g>
	<circle class="st0" cx="256.0" cy="832.0" r="2"/>
</g>
<g>
	<circle class="st0" cx="320.0" cy="832.0" r="2"/>
</g>
<g>
	<circle class="st0" cx="384.0" cy="832.0" r="2"/>
</g>
<g>
	<circle class="st0" cx="448.0" cy="832.0" r="2"/>
</g>
<g>
	<circle class="st0" cx="512.0" cy="832.0" r="2"/>
</g>
<g>
	<circle class="st0" cx="576.0" cy="832.0" r="2"/>
</g>
<g>
	<circle class="st0" cx="640.0" cy="832.0" r="2"/>
</g>
<g>
	<circle class="st0" cx="704.0" cy="832.0" r="2"/>
</g>
<g>
	<circle class="st0" cx="768.0" cy="832.0" r="2"/>
</g>
<g>
	<circle class="st0" cx="832.0" cy="832.0" r="2"/>
</g>
<g>
	<circle class="st0" cx="896.0" cy="832.0" r="2"/>
</g>
<g>
	<circle class="st0" cx="960.0" cy="832.0" r="2"/>
</g>
<g>
	<circle class="st0" cx="1024.0" cy="832.0" r="2"/>
</g>
<g>
	<circle class="st0" cx="1088.0" cy="832.0" r="2"/>
</g>
<g>
	<circle class="st0" cx="1152.0" cy="832.0" r="2"/>
</g>
<g>
	<circle class="st0" cx="1216.0" cy="832.0" r="2"/>
</g>
<g>
	<circle class="st0" cx="1280.0" cy="832.0" r="2"/>
</g>
<g>
	<circle class="st0" cx="1344.0" cy="832.0" r="2"/>
</g>
<g>
	<circle class="st0" cx="1408.0" cy="832.0" r="2"/>
</g>
<g>
	<circle class="st0" cx="1472.0" cy="832.0" r="2"/>
</g>
<g>
	<circle class="st0" cx="1536.0" cy="832.0" r="2"/>
</g>
<g>
	<circle class="st0" cx="1600.0" cy="832.0" r="2"/>
</g>
<g>
	<circle class="st0" cx="1664.0" cy="832.0" r="2"/>
</g>
<g>
	<circle class="st0" cx="1728.0" cy="832.0" r="2"/>
</g>
<g>
	<circle class="st0" cx="1792.0" cy="832.0" r="2"/>
</g>
<g>
	<circle class="st0" cx="1856.0" cy="832.0" r="2"/>
</g>
<g>
	<circle class="st0" cx="0" cy="896.0" r="2"/>
</g>
<g>
	<circle class="st0" cx="64.0" cy="896.0" r="2"/>
</g>
<g>
	<circle class="st0" cx="128.0" cy="896.0" r="2"/>
</g>
<g>
	<circle class="st0" cx="192.0" cy="896.0" r="2"/>
</g>
<g>
	<circle class="st0" cx="256.0" cy="896.0" r="2"/>
</g>
<g>
	<circle class="st0" cx="320.0" cy="896.0" r="2"/>
</g>
<g>
	<circle class="st0" cx="384.0" cy="896.0" r="2"/>
</g>
<g>
	<circle class="st0" cx="448.0" cy="896.0" r="2"/>
</g>
<g>
	<circle class="st0" cx="512.0" cy="896.0" r="2"/>
</g>
<g>
	<circle class="st0" cx="576.0" cy="896.0" r="2"/>
</g>
<g>
	<circle class="st0" cx="640.0" cy="896.0" r="2"/>
</g>
<g>
	<circle class="st0" cx="704.0" cy="896.0" r="2"/>
</g>
<g>
	<circle class="st0" cx="768.0" cy="896.0" r="2"/>
</g>
<g>
	<circle class="st0" cx="832.0" cy="896.0" r="2"/>
</g>
<g>
	<circle class="st0" cx="896.0" cy="896.0" r="2"/>
</g>
<g>
	<circle class="st0" cx="960.0" cy="896.0" r="2"/>
</g>
<g>
	<circle class="st0" cx="1024.0" cy="896.0" r="2"/>
</g>
<g>
	<circle class="st0" cx="1088.0" cy="896.0" r="2"/>
</g>
<g>
	<circle class="st0" cx="1152.0" cy="896.0" r="2"/>
</g>
<g>
	<circle class="st0" cx="1216.0" cy="896.0" r="2"/>
</g>
<g>
	<circle class="st0" cx="1280.0" cy="896.0" r="2"/>
</g>
<g>
	<circle class="st0" cx="1344.0" cy="896.0" r="2"/>
</g>
<g>
	<circle class="st0" cx="1408.0" cy="896.0" r="2"/>
</g>
<g>
	<circle class="st0" cx="1472.0" cy="896.0" r="2"/>
</g>
<g>
	<circle class="st0" cx="1536.0" cy="896.0" r="2"/>
</g>
<g>
	<circle class="st0" cx="1600.0" cy="896.0" r="2"/>
</g>
<g>
	<circle class="st0" cx="1664.0" cy="896.0" r="2"/>
</g>
<g>
	<circle class="st0" cx="1728.0" cy="896.0" r="2"/>
</g>
<g>
	<circle class="st0" cx="1792.0" cy="896.0" r="2"/>
</g>
<g>
	<circle class="st0" cx="1856.0" cy="896.0" r="2"/>
</g>
<g>
	<circle class="st0" cx="0" cy="960.0" r="2"/>
</g>
<g>
	<circle class="st0" cx="64.0" cy="960.0" r="2"/>
</g>
<g>
	<circle class="st0" cx="128.0" cy="960.0" r="2"/>
</g>
<g>
	<circle class="st0" cx="192.0" cy="960.0" r="2"/>
</g>
<g>
	<circle class="st0" cx="256.0" cy="960.0" r="2"/>
</g>
<g>
	<circle class="st0" cx="320.0" cy="960.0" r="2"/>
</g>
<g>
	<circle class="st0" cx="384.0" cy="960.0" r="2"/>
</g>
<g>
	<circle class="st0" cx="448.0" cy="960.0" r="2"/>
</g>
<g>
	<circle class="st0" cx="512.0" cy="960.0" r="2"/>
</g>
<g>
	<circle class="st0" cx="576.0" cy="960.0" r="2"/>
</g>
<g>
	<circle class="st0" cx="640.0" cy="960.0" r="2"/>
</g>
<g>
	<circle class="st0" cx="704.0" cy="960.0" r="2"/>
</g>
<g>
	<circle class="st0" cx="768.0" cy="960.0" r="2"/>
</g>
<g>
	<circle class="st0" cx="832.0" cy="960.0" r="2"/>
</g>
<g>
	<circle class="st0" cx="896.0" cy="960.0" r="2"/>
</g>
<g>
	<circle class="st0" cx="960.0" cy="960.0" r="2"/>
</g>
<g>
	<circle class="st0" cx="1024.0" cy="960.0" r="2"/>
</g>
<g>
	<circle class="st0" cx="1088.0" cy="960.0" r="2"/>
</g>
<g>
	<circle class="st0" cx="1152.0" cy="960.0" r="2"/>
</g>
<g>
	<circle class="st0" cx="1216.0" cy="960.0" r="2"/>
</g>
<g>
	<circle class="st0" cx="1280.0" cy="960.0" r="2"/>
</g>
<g>
	<circle class="st0" cx="1344.0" cy="960.0" r="2"/>
</g>
<g>
	<circle class="st0" cx="1408.0" cy="960.0" r="2"/>
</g>
<g>
	<circle class="st0" cx="1472.0" cy="960.0" r="2"/>
</g>
<g>
	<circle class="st0" cx="1536.0" cy="960.0" r="2"/>
</g>
<g>
	<circle class="st0" cx="1600.0" cy="960.0" r="2"/>
</g>
<g>
	<circle class="st0" cx="1664.0" cy="960.0" r="2"/>
</g>
<g>
	<circle class="st0" cx="1728.0" cy="960.0" r="2"/>
</g>
<g>
	<circle class="st0" cx="1792.0" cy="960.0" r="2"/>
</g>
<g>
	<circle class="st0" cx="1856.0" cy="960.0" r="2"/>
</g>
<g>
	<circle class="st0" cx="0" cy="1024.0" r="2"/>
</g>
<g>
	<circle class="st0" cx="64.0" cy="1024.0" r="2"/>
</g>
<g>
	<circle class="st0" cx="128.0" cy="1024.0" r="2"/>
</g>
<g>
	<circle class="st0" cx="192.0" cy="1024.0" r="2"/>
</g>
<g>
	<circle class="st0" cx="256.0" cy="1024.0" r="2"/>
</g>
<g>
	<circle class="st0" cx="320.0" cy="1024.0" r="2"/>
</g>
<g>
	<circle class="st0" cx="384.0" cy="1024.0" r="2"/>
</g>
<g>
	<circle class="st0" cx="448.0" cy="1024.0" r="2"/>
</g>
<g>
	<circle class="st0" cx="512.0" cy="1024.0" r="2"/>
</g>
<g>
	<circle class="st0" cx="576.0" cy="1024.0" r="2"/>
</g>
<g>
	<circle class="st0" cx="640.0" cy="1024.0" r="2"/>
</g>
<g>
	<circle class="st0" cx="704.0" cy="1024.0" r="2"/>
</g>
<g>
	<circle class="st0" cx="768.0" cy="1024.0" r="2"/>
</g>
<g>
	<circle class="st0" cx="832.0" cy="1024.0" r="2"/>
</g>
<g>
	<circle class="st0" cx="896.0" cy="1024.0" r="2"/>
</g>
<g>
	<circle class="st0" cx="960.0" cy="1024.0" r="2"/>
</g>
<g>
	<circle class="st0" cx="1024.0" cy="1024.0" r="2"/>
</g>
<g>
	<circle class="st0" cx="1088.0" cy="1024.0" r="2"/>
</g>
<g>
	<circle class="st0" cx="1152.0" cy="1024.0" r="2"/>
</g>
<g>
	<circle class="st0" cx="1216.0" cy="1024.0" r="2"/>
</g>
<g>
	<circle class="st0" cx="1280.0" cy="1024.0" r="2"/>
</g>
<g>
	<circle class="st0" cx="1344.0" cy="1024.0" r="2"/>
</g>
<g>
	<circle class="st0" cx="1408.0" cy="1024.0" r="2"/>
</g>
<g>
	<circle class="st0" cx="1472.0" cy="1024.0" r="2"/>
</g>
<g>
	<circle class="st0" cx="1536.0" cy="1024.0" r="2"/>
</g>
<g>
	<circle class="st0" cx="1600.0" cy="1024.0" r="2"/>
</g>
<g>
	<circle class="st0" cx="1664.0" cy="1024.0" r="2"/>
</g>
<g>
	<circle class="st0" cx="1728.0" cy="1024.0" r="2"/>
</g>
<g>
	<circle class="st0" cx="1792.0" cy="1024.0" r="2"/>
</g>
<g>
	<circle class="st0" cx="1856.0" cy="1024.0" r="2"/>
</g>



</svg>
